<svg xmlns="http://www.w3.org/2000/svg" xmlns:xlink="http://www.w3.org/1999/xlink" version="1.1" width="1000" height="1000" viewBox="0 0 1000 1000" xml:space="preserve">
<desc>Created with Fabric.js 3.5.0</desc>
<defs>
</defs>
<rect x="0" y="0" width="100%" height="100%" fill="#ffffff"/>
<g transform="matrix(0 21.6608 -21.6608 0 499.9995 500.0007)" id="681239">
<path style="stroke: none; stroke-width: 1; stroke-dasharray: none; stroke-linecap: butt; stroke-dashoffset: 0; stroke-linejoin: miter; stroke-miterlimit: 4; is-custom-font: none; font-file-url: none; fill: rgb(0,0,0); fill-rule: nonzero; opacity: 1;" vector-effect="non-scaling-stroke" transform=" translate(-24.9847, -24.9849)" d="M 27.84375 11 A 1.0001 1.0001 0 0 0 27 12 L 27 20 L 5 20 A 1.0001 1.0001 0 0 0 4 21 L 4 29 A 1.0001 1.0001 0 0 0 5 30 L 27 30 L 27 38 A 1.0001 1.0001 0 0 0 28.59375 38.78125 L 45.59375 25.78125 A 1.0001 1.0001 0 0 0 45.59375 24.21875 L 28.59375 11.21875 A 1.0001 1.0001 0 0 0 27.84375 11 z M 29 14 L 43.375 25 L 29 36 L 29 29 A 1.0001 1.0001 0 0 0 28 28 L 6 28 L 6 22 L 28 22 A 1.0001 1.0001 0 0 0 29 21 L 29 14 z" stroke-linecap="round"/>
</g>
</svg>